<svg width="70.278" height="65.417" viewBox="0 0 70.278 65.417" xmlns="http://www.w3.org/2000/svg"><g id="svgGroup" stroke-linecap="round" fill-rule="nonzero" font-size="9pt" stroke="#615fff" stroke-width="0.75" fill="#615fff" style="stroke:#615fff;stroke-width:0.75;fill:#615fff"><path d="M 36.182 50.427 L 36.182 40.833 L 49.585 40.833 L 49.585 46.362 Q 49.585 48.083 49.786 49.695 A 5.682 5.682 0 0 0 50.72 52.332 Q 51.453 53.357 53.027 53.357 A 2.717 2.717 0 0 0 55.774 51.947 A 8.543 8.543 0 0 0 56.433 48.34 L 56.433 35.669 Q 56.433 34.094 56.232 32.556 Q 56.03 31.018 55.334 29.993 Q 54.639 28.967 53.101 28.967 A 3.706 3.706 0 0 0 49.482 33.179 A 13.035 13.035 0 0 0 49.438 34.277 L 37.61 34.277 L 37.61 0 L 68.335 0 L 68.335 12.085 L 49.841 12.085 L 49.841 21.167 A 8.634 8.634 0 0 1 52.423 19.098 Q 54.053 18.201 56.25 18.201 A 13.602 13.602 0 0 1 63.409 19.885 A 11.132 11.132 0 0 1 67.657 24.573 A 23.028 23.028 0 0 1 69.708 31.531 A 59.894 59.894 0 0 1 70.276 40.027 Q 70.276 45.85 69.672 50.519 A 23.279 23.279 0 0 1 67.291 58.521 Q 65.515 61.853 62.091 63.629 A 18.26 18.26 0 0 1 54.486 65.374 A 33.105 33.105 0 0 1 53.027 65.405 A 19.91 19.91 0 0 1 42.107 62.587 A 15.591 15.591 0 0 1 40.887 61.725 A 12.911 12.911 0 0 1 36.216 51.707 A 23.08 23.08 0 0 1 36.182 50.427 Z M 17.322 64.453 L 2.747 64.453 A 95.951 95.951 0 0 1 5.273 47.607 Q 7.214 39.771 9.741 33.014 A 371.995 371.995 0 0 1 14.612 20.618 L 18.201 11.938 L 0 11.938 L 0 0 L 32.52 0 L 32.52 7.031 A 25.31 25.31 0 0 1 31.238 14.868 A 94.469 94.469 0 0 1 27.869 23.584 Q 23.328 33.911 20.636 44.147 Q 17.944 54.382 17.322 64.453 Z"/></g></svg>